<svg xmlns="http://www.w3.org/2000/svg" width="32" height="32" viewBox="0 0 32 32" fill="none">
  <!-- Left code panel -->
  <rect x="1" y="3" width="12" height="16" rx="1.5" fill="#1a0a2e" stroke="#7c3aed" stroke-width="1.2"/>
  <rect x="3.5" y="7" width="7" height="1.5" rx="0.75" fill="#7c3aed" opacity="0.9"/>
  <rect x="3.5" y="10" width="5" height="1.5" rx="0.75" fill="#a78bfa" opacity="0.7"/>
  <rect x="3.5" y="13" width="6" height="1.5" rx="0.75" fill="#7c3aed" opacity="0.9"/>
  <rect x="3.5" y="16" width="4" height="1.5" rx="0.75" fill="#a78bfa" opacity="0.6"/>
  <!-- Right code panel -->
  <rect x="19" y="3" width="12" height="16" rx="1.5" fill="#0a1a2e" stroke="#06b6d4" stroke-width="1.2"/>
  <rect x="21.5" y="7" width="7" height="1.5" rx="0.75" fill="#06b6d4" opacity="0.9"/>
  <rect x="21.5" y="10" width="8" height="1.5" rx="0.75" fill="#67e8f9" opacity="0.7"/>
  <rect x="21.5" y="13" width="5" height="1.5" rx="0.75" fill="#22d3ee" opacity="0.8"/>
  <rect x="21.5" y="16" width="7" height="1.5" rx="0.75" fill="#34d399" opacity="0.9"/>
  <!-- Center diff arrows -->
  <path d="M14.5 11 L17.5 11" stroke="#a78bfa" stroke-width="1.4" stroke-linecap="round"/>
  <path d="M15.8 9.5 L14.2 11 L15.8 12.5" stroke="#a78bfa" stroke-width="1.2" stroke-linecap="round" stroke-linejoin="round" fill="none"/>
  <path d="M14.5 15 L17.5 15" stroke="#06b6d4" stroke-width="1.4" stroke-linecap="round"/>
  <path d="M16.2 13.5 L17.8 15 L16.2 16.5" stroke="#06b6d4" stroke-width="1.2" stroke-linecap="round" stroke-linejoin="round" fill="none"/>
  <!-- Bottom diff legend bar -->
  <rect x="1" y="22" width="30" height="7" rx="1.5" fill="#1a0a2e" stroke="#4c1d95" stroke-width="0.8"/>
  <rect x="3" y="24.5" width="6" height="2" rx="1" fill="#f87171" opacity="0.85"/>
  <rect x="11.5" y="24.5" width="6" height="2" rx="1" fill="#34d399" opacity="0.85"/>
  <rect x="20" y="24.5" width="6" height="2" rx="1" fill="#fbbf24" opacity="0.85"/>
  <circle cx="27.5" cy="25.5" r="1" fill="#a78bfa" opacity="0.9"/>
</svg>
